<mxfile host="app.diagrams.net" agent="Mozilla/5.0 (Windows NT 10.0; Win64; x64) AppleWebKit/537.36 (KHTML, like Gecko) Chrome/140.0.0.0 Safari/537.36" version="28.2.5">
  <diagram name="Page-1" id="U7370WRpeDJHVLQQi5wW">
    <mxGraphModel dx="980" dy="562" grid="1" gridSize="10" guides="1" tooltips="1" connect="1" arrows="1" fold="1" page="1" pageScale="1" pageWidth="850" pageHeight="1100" math="0" shadow="0">
      <root>
        <mxCell id="0" />
        <mxCell id="1" parent="0" />
        <mxCell id="q16r4yJzv_R5wcEfkUd1-2" value="VPC" style="points=[[0,0],[0.25,0],[0.5,0],[0.75,0],[1,0],[1,0.25],[1,0.5],[1,0.75],[1,1],[0.75,1],[0.5,1],[0.25,1],[0,1],[0,0.75],[0,0.5],[0,0.25]];outlineConnect=0;gradientColor=none;html=1;whiteSpace=wrap;fontSize=12;fontStyle=0;container=1;pointerEvents=0;collapsible=0;recursiveResize=0;shape=mxgraph.aws4.group;grIcon=mxgraph.aws4.group_vpc2;strokeColor=#8C4FFF;fillColor=none;verticalAlign=top;align=left;spacingLeft=30;fontColor=#AAB7B8;dashed=0;" vertex="1" parent="1">
          <mxGeometry x="80" y="120" width="600" height="440" as="geometry" />
        </mxCell>
        <mxCell id="q16r4yJzv_R5wcEfkUd1-31" value="" style="fillColor=none;strokeColor=#5A6C86;dashed=1;verticalAlign=top;fontStyle=0;fontColor=#5A6C86;whiteSpace=wrap;html=1;" vertex="1" parent="q16r4yJzv_R5wcEfkUd1-2">
          <mxGeometry x="30" y="240" width="370" height="190" as="geometry" />
        </mxCell>
        <mxCell id="q16r4yJzv_R5wcEfkUd1-4" value="Public subnet" style="points=[[0,0],[0.25,0],[0.5,0],[0.75,0],[1,0],[1,0.25],[1,0.5],[1,0.75],[1,1],[0.75,1],[0.5,1],[0.25,1],[0,1],[0,0.75],[0,0.5],[0,0.25]];outlineConnect=0;gradientColor=none;html=1;whiteSpace=wrap;fontSize=12;fontStyle=0;container=1;pointerEvents=0;collapsible=0;recursiveResize=0;shape=mxgraph.aws4.group;grIcon=mxgraph.aws4.group_security_group;grStroke=0;strokeColor=#7AA116;fillColor=#F2F6E8;verticalAlign=top;align=left;spacingLeft=30;fontColor=#248814;dashed=0;" vertex="1" parent="q16r4yJzv_R5wcEfkUd1-2">
          <mxGeometry x="47" y="261" width="130" height="130" as="geometry" />
        </mxCell>
        <mxCell id="q16r4yJzv_R5wcEfkUd1-8" value="&lt;font style=&quot;font-size: 10px;&quot;&gt;EC2 instance&lt;/font&gt;" style="sketch=0;points=[[0,0,0],[0.25,0,0],[0.5,0,0],[0.75,0,0],[1,0,0],[0,1,0],[0.25,1,0],[0.5,1,0],[0.75,1,0],[1,1,0],[0,0.25,0],[0,0.5,0],[0,0.75,0],[1,0.25,0],[1,0.5,0],[1,0.75,0]];outlineConnect=0;fontColor=#232F3E;fillColor=#ED7100;strokeColor=#ffffff;dashed=0;verticalLabelPosition=bottom;verticalAlign=top;align=center;html=1;fontSize=12;fontStyle=0;aspect=fixed;shape=mxgraph.aws4.resourceIcon;resIcon=mxgraph.aws4.ec2;" vertex="1" parent="q16r4yJzv_R5wcEfkUd1-4">
          <mxGeometry x="38" y="48" width="42" height="42" as="geometry" />
        </mxCell>
        <mxCell id="q16r4yJzv_R5wcEfkUd1-3" value="Public subnet" style="points=[[0,0],[0.25,0],[0.5,0],[0.75,0],[1,0],[1,0.25],[1,0.5],[1,0.75],[1,1],[0.75,1],[0.5,1],[0.25,1],[0,1],[0,0.75],[0,0.5],[0,0.25]];outlineConnect=0;gradientColor=none;html=1;whiteSpace=wrap;fontSize=12;fontStyle=0;container=1;pointerEvents=0;collapsible=0;recursiveResize=0;shape=mxgraph.aws4.group;grIcon=mxgraph.aws4.group_security_group;grStroke=0;strokeColor=#7AA116;fillColor=#F2F6E8;verticalAlign=top;align=left;spacingLeft=30;fontColor=#248814;dashed=0;" vertex="1" parent="q16r4yJzv_R5wcEfkUd1-2">
          <mxGeometry x="255" y="261" width="130" height="159" as="geometry" />
        </mxCell>
        <mxCell id="q16r4yJzv_R5wcEfkUd1-10" value="&lt;font style=&quot;font-size: 11px;&quot;&gt;EC2 instance&lt;/font&gt;" style="sketch=0;points=[[0,0,0],[0.25,0,0],[0.5,0,0],[0.75,0,0],[1,0,0],[0,1,0],[0.25,1,0],[0.5,1,0],[0.75,1,0],[1,1,0],[0,0.25,0],[0,0.5,0],[0,0.75,0],[1,0.25,0],[1,0.5,0],[1,0.75,0]];outlineConnect=0;fontColor=#232F3E;fillColor=#ED7100;strokeColor=#ffffff;dashed=0;verticalLabelPosition=bottom;verticalAlign=top;align=center;html=1;fontSize=12;fontStyle=0;aspect=fixed;shape=mxgraph.aws4.resourceIcon;resIcon=mxgraph.aws4.ec2;" vertex="1" parent="q16r4yJzv_R5wcEfkUd1-3">
          <mxGeometry x="40" y="47" width="43" height="43" as="geometry" />
        </mxCell>
        <mxCell id="q16r4yJzv_R5wcEfkUd1-6" value="Private subnet" style="points=[[0,0],[0.25,0],[0.5,0],[0.75,0],[1,0],[1,0.25],[1,0.5],[1,0.75],[1,1],[0.75,1],[0.5,1],[0.25,1],[0,1],[0,0.75],[0,0.5],[0,0.25]];outlineConnect=0;gradientColor=none;html=1;whiteSpace=wrap;fontSize=12;fontStyle=0;container=1;pointerEvents=0;collapsible=0;recursiveResize=0;shape=mxgraph.aws4.group;grIcon=mxgraph.aws4.group_security_group;grStroke=0;strokeColor=#00A4A6;fillColor=#E6F6F7;verticalAlign=top;align=left;spacingLeft=30;fontColor=#147EBA;dashed=0;" vertex="1" parent="q16r4yJzv_R5wcEfkUd1-2">
          <mxGeometry x="431" y="256" width="130" height="130" as="geometry" />
        </mxCell>
        <mxCell id="q16r4yJzv_R5wcEfkUd1-9" value="&lt;span style=&quot;font-size: 11px;&quot;&gt;EC2 instance&lt;/span&gt;" style="sketch=0;points=[[0,0,0],[0.25,0,0],[0.5,0,0],[0.75,0,0],[1,0,0],[0,1,0],[0.25,1,0],[0.5,1,0],[0.75,1,0],[1,1,0],[0,0.25,0],[0,0.5,0],[0,0.75,0],[1,0.25,0],[1,0.5,0],[1,0.75,0]];outlineConnect=0;fontColor=#232F3E;fillColor=#ED7100;strokeColor=#ffffff;dashed=0;verticalLabelPosition=bottom;verticalAlign=top;align=center;html=1;fontSize=12;fontStyle=0;aspect=fixed;shape=mxgraph.aws4.resourceIcon;resIcon=mxgraph.aws4.ec2;" vertex="1" parent="q16r4yJzv_R5wcEfkUd1-6">
          <mxGeometry x="41" y="48" width="42" height="42" as="geometry" />
        </mxCell>
        <mxCell id="q16r4yJzv_R5wcEfkUd1-18" value="Route table" style="sketch=0;outlineConnect=0;fontColor=#232F3E;gradientColor=none;strokeColor=#232F3E;fillColor=#ffffff;dashed=0;verticalLabelPosition=bottom;verticalAlign=top;align=center;html=1;fontSize=12;fontStyle=0;aspect=fixed;shape=mxgraph.aws4.resourceIcon;resIcon=mxgraph.aws4.route_table;" vertex="1" parent="q16r4yJzv_R5wcEfkUd1-2">
          <mxGeometry x="180" y="20" width="60" height="60" as="geometry" />
        </mxCell>
        <mxCell id="q16r4yJzv_R5wcEfkUd1-19" value="" style="points=[];aspect=fixed;html=1;align=center;shadow=0;dashed=0;fillColor=#FF6A00;strokeColor=none;shape=mxgraph.alibaba_cloud.network_acl_access_control_list;" vertex="1" parent="q16r4yJzv_R5wcEfkUd1-2">
          <mxGeometry x="187.60000000000002" y="129" width="47.400000000000006" height="42.599999999999994" as="geometry" />
        </mxCell>
        <mxCell id="q16r4yJzv_R5wcEfkUd1-22" value="" style="html=1;endArrow=block;elbow=vertical;startArrow=block;startFill=1;endFill=1;strokeColor=#545B64;rounded=0;" edge="1" parent="q16r4yJzv_R5wcEfkUd1-2">
          <mxGeometry width="100" relative="1" as="geometry">
            <mxPoint x="210" y="23" as="sourcePoint" />
            <mxPoint x="209.5" y="-27" as="targetPoint" />
          </mxGeometry>
        </mxCell>
        <mxCell id="q16r4yJzv_R5wcEfkUd1-32" value="" style="image;aspect=fixed;html=1;points=[];align=center;fontSize=12;image=img/lib/azure2/networking/Network_Security_Groups.svg;" vertex="1" parent="q16r4yJzv_R5wcEfkUd1-2">
          <mxGeometry x="390" y="116.3" width="27.75" height="33.7" as="geometry" />
        </mxCell>
        <mxCell id="q16r4yJzv_R5wcEfkUd1-33" value="&lt;font style=&quot;font-size: 10px;&quot;&gt;Network&amp;nbsp;&lt;/font&gt;&lt;span style=&quot;font-size: 10px; background-color: light-dark(#ffffff, var(--ge-dark-color, #121212)); color: light-dark(rgb(0, 0, 0), rgb(255, 255, 255));&quot;&gt;security&amp;nbsp;&lt;/span&gt;&lt;span style=&quot;font-size: 10px; background-color: light-dark(#ffffff, var(--ge-dark-color, #121212)); color: light-dark(rgb(0, 0, 0), rgb(255, 255, 255));&quot;&gt;group&lt;/span&gt;" style="image;aspect=fixed;html=1;points=[];align=center;fontSize=12;image=img/lib/azure2/networking/Network_Security_Groups.svg;" vertex="1" parent="q16r4yJzv_R5wcEfkUd1-2">
          <mxGeometry x="202.25" y="268.15" width="27.75" height="33.7" as="geometry" />
        </mxCell>
        <mxCell id="q16r4yJzv_R5wcEfkUd1-37" value="" style="fillColor=none;strokeColor=#5A6C86;dashed=1;verticalAlign=top;fontStyle=0;fontColor=#5A6C86;whiteSpace=wrap;html=1;" vertex="1" parent="q16r4yJzv_R5wcEfkUd1-2">
          <mxGeometry x="57" y="288" width="480" height="93" as="geometry" />
        </mxCell>
        <mxCell id="q16r4yJzv_R5wcEfkUd1-11" value="" style="outlineConnect=0;dashed=0;verticalLabelPosition=bottom;verticalAlign=top;align=center;html=1;shape=mxgraph.aws3.internet_gateway;fillColor=#F58534;gradientColor=none;" vertex="1" parent="1">
          <mxGeometry x="250" y="20" width="69" height="72" as="geometry" />
        </mxCell>
        <mxCell id="q16r4yJzv_R5wcEfkUd1-13" value="Internet Gateway" style="text;html=1;align=center;verticalAlign=middle;resizable=0;points=[];autosize=1;strokeColor=none;fillColor=none;" vertex="1" parent="1">
          <mxGeometry x="299" y="87" width="110" height="30" as="geometry" />
        </mxCell>
        <mxCell id="q16r4yJzv_R5wcEfkUd1-14" value="PlanetVPC" style="text;html=1;align=center;verticalAlign=middle;resizable=0;points=[];autosize=1;strokeColor=none;fillColor=none;" vertex="1" parent="1">
          <mxGeometry x="96" y="137" width="80" height="30" as="geometry" />
        </mxCell>
        <mxCell id="q16r4yJzv_R5wcEfkUd1-15" value="PlanetPublicSubnet1" style="text;html=1;align=center;verticalAlign=middle;resizable=0;points=[];autosize=1;strokeColor=none;fillColor=none;" vertex="1" parent="1">
          <mxGeometry x="117" y="514" width="130" height="30" as="geometry" />
        </mxCell>
        <mxCell id="q16r4yJzv_R5wcEfkUd1-16" value="PlanetPublicSubnet2" style="text;html=1;align=center;verticalAlign=middle;resizable=0;points=[];autosize=1;strokeColor=none;fillColor=none;" vertex="1" parent="1">
          <mxGeometry x="343" y="514" width="130" height="30" as="geometry" />
        </mxCell>
        <mxCell id="q16r4yJzv_R5wcEfkUd1-17" value="PlanetPrivateSubnet1" style="text;html=1;align=center;verticalAlign=middle;resizable=0;points=[];autosize=1;strokeColor=none;fillColor=none;" vertex="1" parent="1">
          <mxGeometry x="513" y="510" width="140" height="30" as="geometry" />
        </mxCell>
        <mxCell id="q16r4yJzv_R5wcEfkUd1-25" value="" style="html=1;endArrow=block;elbow=vertical;startArrow=block;startFill=1;endFill=1;strokeColor=#545B64;rounded=0;" edge="1" parent="1">
          <mxGeometry width="100" relative="1" as="geometry">
            <mxPoint x="292" y="258" as="sourcePoint" />
            <mxPoint x="292" y="218" as="targetPoint" />
          </mxGeometry>
        </mxCell>
        <mxCell id="q16r4yJzv_R5wcEfkUd1-26" value="Network ACL" style="text;html=1;align=center;verticalAlign=middle;resizable=0;points=[];autosize=1;strokeColor=none;fillColor=none;" vertex="1" parent="1">
          <mxGeometry x="298" y="278" width="90" height="30" as="geometry" />
        </mxCell>
        <mxCell id="q16r4yJzv_R5wcEfkUd1-27" value="" style="html=1;endArrow=block;elbow=vertical;startArrow=block;startFill=1;endFill=1;strokeColor=#545B64;rounded=0;edgeStyle=orthogonalEdgeStyle;" edge="1" parent="1">
          <mxGeometry width="100" relative="1" as="geometry">
            <mxPoint x="291.5" y="344" as="sourcePoint" />
            <mxPoint x="291" y="294" as="targetPoint" />
            <Array as="points">
              <mxPoint x="292" y="319" />
            </Array>
          </mxGeometry>
        </mxCell>
        <mxCell id="q16r4yJzv_R5wcEfkUd1-28" value="" style="html=1;endArrow=block;elbow=vertical;startArrow=block;startFill=1;endFill=1;strokeColor=#545B64;rounded=0;edgeStyle=orthogonalEdgeStyle;" edge="1" parent="1" target="q16r4yJzv_R5wcEfkUd1-31">
          <mxGeometry width="100" relative="1" as="geometry">
            <mxPoint x="291.5" y="344" as="sourcePoint" />
            <mxPoint x="291" y="294" as="targetPoint" />
            <Array as="points">
              <mxPoint x="292" y="320" />
              <mxPoint x="291" y="320" />
            </Array>
          </mxGeometry>
        </mxCell>
      </root>
    </mxGraphModel>
  </diagram>
</mxfile>
